<svg xmlns="http://www.w3.org/2000/svg" viewBox="0 0 1149.61 130.06">
    <defs>
        <style>.cls-1{fill:#79b1e4;}</style>
    </defs>
    <title>logo</title>
    <g id="Layer_4" data-name="Layer 4">
        <g id="Breadcrumb_-_black_large_" data-name="Breadcrumb - black (large)">
            <path class="cls-1" d="M1103.05,30.26c-5.57,3.26-10.7,7.59-17.88,10.24a39.13,39.13,0,0,1-12.36,2.37c-14.6.5-38.63,5.2-43.36,6.61s-16.53-.09-26,3.3-15.37,8.72-16.76,12.43a20,20,0,0,1-3.07,5.69L976.47,84s16.87-5.32,18-5.46a85.74,85.74,0,0,0,12.58,4.6A23.87,23.87,0,0,1,1017.68,88a41.75,41.75,0,0,0,37.56,6.88l5.59-1.66,5.6,5.72-14.69,22.22-12.43.09-2.79,2.93-3.5,0-3.55,3.57,26.18,0,1.18-1.31,8.7,1.32h4.69l-11-4.65,19.16-29.14-4.48-5,9.54-4.09a32.12,32.12,0,0,0,14.34-15.78c7.3-16.67,18.54-34.06,18.54-34.06l33.3-18.86,0-14.27S1111.37,25.4,1103.05,30.26Z" />
            <path class="cls-1" d="M959.61,117.84a12.23,12.23,0,1,0-12.23,12.22A12.23,12.23,0,0,0,959.61,117.84Z" />
        </g>
    </g>
</svg>