<svg xmlns="http://www.w3.org/2000/svg" viewBox="0 0 1149.61 130.06"><defs><style>.cls-1{fill:#79b1e4;}</style></defs><title>logo</title><g id="Layer_4" data-name="Layer 4"><g id="Breadcrumb_-_black_large_" data-name="Breadcrumb - black (large)"><path class="cls-1" d="M90,84.79c0,25.83-17.93,45.27-41.63,45.27-11.9,0-20.16-4.79-25.75-11.72v9.5H0V0H23.08V50.78C28.68,44,36.75,39.51,48.3,39.51,72.09,39.51,90,59,90,84.79Zm-68.09,0c0,13.58,9,23.7,22.11,23.7,13.67,0,22.19-10.57,22.19-23.7S57.71,61.08,44,61.08C30.9,61.08,21.93,71.2,21.93,84.79Z"/><path class="cls-1" d="M157.58,41.37l-3.47,23a37.5,37.5,0,0,0-14-2.76C129.34,61.61,122,68.18,122,81v46.87H98.8v-86h22.47v9.41c5.41-8.08,13.67-11.72,24.23-11.72A35.36,35.36,0,0,1,157.58,41.37Z"/><path class="cls-1" d="M241.57,84.7a65.49,65.49,0,0,1-.45,7.81h-61c2.49,12.43,11.19,17.84,22.11,17.84A34.79,34.79,0,0,0,224,102.1L237.57,117c-9.76,9-22.19,13-36.67,13-26.36,0-44.65-17.93-44.65-45S174,39.51,199.75,39.51C224.52,39.51,241.48,57.89,241.57,84.7Zm-61.35-8h38.09c-2.13-11-8.79-17.23-18.74-17.23C188.65,59.48,182.26,66.05,180.22,76.71Z"/><path class="cls-1" d="M337.54,127.84H314.9v-9.5c-5.59,6.93-13.93,11.72-25.74,11.72-23.71,0-41.64-19.44-41.64-45.27s17.93-45.28,41.64-45.28c11.81,0,20.06,4.79,25.74,11.81v-9.5h22.64Zm-66.32-43c0,13.13,8.62,23.7,22.2,23.7,13.23,0,22.19-10.12,22.19-23.7s-9-23.71-22.19-23.71C279.84,61.08,271.22,71.65,271.22,84.79Z"/><path class="cls-1" d="M412.1,50.78V0h23.09V127.84H412.55v-9.5c-5.6,6.93-13.94,11.72-25.75,11.72-23.7,0-41.64-19.44-41.64-45.27S363.1,39.51,386.8,39.51C398.34,39.51,406.51,44,412.1,50.78Zm-43.23,34c0,13.13,8.61,23.7,22.19,23.7,13.23,0,22.2-10.12,22.2-23.7s-9-23.71-22.2-23.71C377.48,61.08,368.87,71.65,368.87,84.79Z"/><path class="cls-1" d="M523.07,55.75,506.38,69.69c-5.24-5.59-10.83-8.61-18.38-8.61-12,0-21.57,9.41-21.57,23.71s9.49,23.7,21.48,23.7c7.46,0,13.85-3.37,18.73-8.7l16.52,14.11c-8.08,10.39-20.16,16.16-34.54,16.16-27.43,0-45.81-19.17-45.81-45.27s18.38-45.28,45.81-45.28C503,39.51,515.17,45.37,523.07,55.75Z"/><path class="cls-1" d="M588.49,41.37l-3.46,23a37.55,37.55,0,0,0-14-2.76c-10.74,0-18.11,6.57-18.11,19.36v46.87H529.72v-86h22.46v9.41c5.41-8.08,13.67-11.72,24.23-11.72A35.31,35.31,0,0,1,588.49,41.37Z"/><path class="cls-1" d="M675.5,91.18c0,27.16-19.18,38.88-40.66,38.88s-40.76-11.72-40.76-38.88V41.82h23.18V89.14c0,13.76,7.54,19.35,17.58,19.35s17.57-5.59,17.57-19.35V41.82H675.5Z"/><path class="cls-1" d="M824.62,73.07v54.77H801.53V80.52c0-12.42-6.3-19.26-16.78-19.26-9.94,0-18.2,6.48-18.2,19.44v47.14H743.38V80.52c0-12.42-6.21-19.26-16.78-19.26-9.94,0-18.2,6.48-18.2,19.44v47.14H685.23v-86h22.55V51.94c6.13-9.15,15.54-12.43,25.3-12.43,12.43,0,22.64,5.59,28.41,14.73,6.66-10.91,17.94-14.73,29.21-14.73C810.94,39.51,824.62,53.09,824.62,73.07Z"/><path class="cls-1" d="M924.13,84.79c0,25.83-17.94,45.27-41.64,45.27-11.9,0-20.15-4.79-25.75-11.72v9.5H834.1V0h23.08V50.78c5.6-6.75,13.68-11.27,25.22-11.27C906.19,39.51,924.13,59,924.13,84.79Zm-68.1,0c0,13.58,9,23.7,22.11,23.7,13.67,0,22.19-10.57,22.19-23.7s-8.52-23.71-22.19-23.71C865,61.08,856,71.2,856,84.79Z"/><path class="cls-1" d="M1103.05,30.26c-5.57,3.26-10.7,7.59-17.88,10.24a39.13,39.13,0,0,1-12.36,2.37c-14.6.5-38.63,5.2-43.36,6.61s-16.53-.09-26,3.3-15.37,8.72-16.76,12.43a20,20,0,0,1-3.07,5.69L976.47,84s16.87-5.32,18-5.46a85.74,85.74,0,0,0,12.58,4.6A23.87,23.87,0,0,1,1017.68,88a41.75,41.75,0,0,0,37.56,6.88l5.59-1.66,5.6,5.72-14.69,22.22-12.43.09-2.79,2.93-3.5,0-3.55,3.57,26.18,0,1.18-1.31,8.7,1.32h4.69l-11-4.65,19.16-29.14-4.48-5,9.54-4.09a32.12,32.12,0,0,0,14.34-15.78c7.3-16.67,18.54-34.06,18.54-34.06l33.3-18.86,0-14.27S1111.37,25.4,1103.05,30.26Z"/><path class="cls-1" d="M959.61,117.84a12.23,12.23,0,1,0-12.23,12.22A12.23,12.23,0,0,0,959.61,117.84Z"/></g></g></svg>